<svg width="392" height="53" viewBox="0 0 392 53" fill="none" xmlns="http://www.w3.org/2000/svg">
<g clip-path="url(#clip0_120_42)">
<path d="M-1 35.3268C5.31747 33.6461 11.7574 32.7569 18.24 32.1788C24.9884 31.5775 31.7513 31.4362 38.5201 31.7297C43.7096 31.9546 48.8992 32.1794 54.0862 32.4573C59.2724 32.7351 64.4528 33.1536 69.6404 33.3751C76.0955 33.6502 82.5525 33.8099 89.016 33.443C95.9177 33.051 102.756 32.2467 109.453 30.4308C111.771 29.8024 114.038 28.9756 116.336 28.2657C117.036 28.0497 117.36 27.6455 117.537 26.8785C118.733 21.7046 120.509 16.7508 122.969 12.0735C124.545 9.07685 126.38 6.27114 128.782 3.91041C130.512 2.21068 132.42 0.798316 134.791 0.212039C138.478 -0.699646 141.128 1.39003 141.229 5.33025C141.276 7.17128 140.787 8.91109 140.072 10.5836C138.906 13.3119 137.204 15.6529 135.201 17.7677C131.32 21.8649 126.693 24.8153 121.693 27.1862C120.782 27.619 119.858 28.0286 118.926 28.4111C118.488 28.5904 118.178 28.8207 118.086 29.3336C117.292 33.7582 116.644 38.1964 117.706 42.6624C117.973 43.7834 118.454 44.8934 119.041 45.8778C119.973 47.4437 121.431 48.2487 123.228 48.2018C124.047 48.1808 124.886 48.0707 125.674 47.8438C127.423 47.3404 128.916 46.3316 130.314 45.1298C130.274 44.9539 130.272 44.8146 130.214 44.71C127.138 39.1849 127.742 33.6923 130.438 28.2732C130.859 27.4254 131.607 26.6692 132.363 26.0979C134.637 24.3798 137.274 25.1577 138.441 27.8126C139.277 29.7161 139.207 31.7032 138.761 33.672C137.859 37.6624 135.765 40.9688 133.122 43.941C132.801 44.3017 132.47 44.6529 132.092 45.0639C133.28 46.2786 134.649 46.4573 136.112 46.0932C136.697 45.9478 137.284 45.691 137.792 45.3567C141.764 42.7392 144.022 38.905 145.154 34.2025C144.525 33.8119 143.955 33.4906 143.418 33.1183C142.225 32.2902 141.266 31.2433 140.933 29.7501C140.809 29.1957 140.77 28.5687 140.886 28.0191C141.14 26.8241 142.14 26.2705 143.293 26.5633C144.102 26.7684 144.686 27.2949 145.151 27.9777C145.932 29.1251 146.242 30.4328 146.305 31.8139C146.327 32.2997 146.308 32.7868 146.308 33.2542C147.836 33.7168 149.2 33.8357 150.657 33.3975C150.826 32.9124 150.957 32.3866 151.187 31.9111C151.867 30.5014 152.505 29.0571 153.325 27.7379C153.726 27.0938 154.435 26.5612 155.116 26.2202C156.273 25.6421 157.317 26.3105 157.528 27.6292C157.711 28.7664 157.363 29.7827 156.776 30.7168C155.786 32.2888 154.413 33.4077 152.707 33.9736C151.771 34.284 151.414 34.8282 151.271 35.7745C150.854 38.534 150.769 41.2718 151.492 43.9926C151.843 45.3146 152.36 46.5578 153.213 47.621C154.547 49.2854 156.254 49.8758 158.252 49.282C159.163 49.0116 160.062 48.6006 160.877 48.0979C164.289 45.9919 167.468 41.7277 168.724 37.6699C168.302 37.1298 167.83 36.5945 167.433 36.0055C165.843 33.6529 165.01 31.0891 165.633 28.1985C165.771 27.5558 166.056 26.8968 166.436 26.371C167.284 25.1957 168.63 25.1754 169.593 26.2582C170.429 27.1985 170.753 28.3764 170.877 29.6088C171.081 31.6509 170.977 33.6787 170.48 35.676C170.351 36.1991 170.225 36.7236 170.104 37.2188C172.278 39.7521 177.954 41.3364 181.757 39.9627C181.612 38.6849 181.415 37.3982 181.329 36.104C181.155 33.4953 181.488 30.9478 182.438 28.5143C183.087 26.852 184.01 25.3832 185.461 24.3364C188.708 21.9946 192.521 23.6692 193.187 27.7229C193.574 30.0775 193.01 32.2202 191.824 34.2059C190.132 37.0402 187.68 38.9396 184.762 40.2392C184.286 40.4512 183.802 40.6475 183.331 40.8472C184.348 45.3588 188.127 50.5999 194.278 51.6638C197.605 52.2392 200.797 51.6319 203.957 50.6638C208.537 49.261 212.794 47.0537 217.091 44.9403C221.583 42.7317 226.056 40.4593 230.654 38.5123C238.278 35.2854 246.28 33.782 254.5 33.3853C263 32.9749 271.436 33.6237 279.808 35.0096C289.155 36.5558 298.463 38.3472 307.783 40.0619C316.249 41.6196 324.737 42.9906 333.302 43.8309C341.531 44.638 349.775 44.9131 358.025 44.5205C369.254 43.9865 380.376 42.6325 391.192 39.2521C391.399 39.1876 391.616 39.1597 391.825 39.1156C392.117 40.119 392.127 40.1624 391.222 40.4036C388.307 41.1787 385.4 41.9899 382.461 42.6557C376.655 43.9709 370.766 44.7399 364.84 45.1305C360.181 45.4376 355.513 45.7698 350.848 45.7725C346.009 45.7745 341.167 45.4593 336.332 45.1645C329.532 44.7487 322.784 43.797 316.07 42.6353C309.488 41.4967 302.927 40.2317 296.363 38.979C288.426 37.4634 280.48 35.996 272.448 35.1156C265.883 34.3955 259.295 34.136 252.704 34.5701C242.921 35.2148 233.633 37.8642 224.805 42.2698C220.245 44.5456 215.7 46.854 211.108 49.0592C207.858 50.6203 204.49 51.8737 200.953 52.5701C198.399 53.0735 195.841 53.21 193.288 52.5748C188.001 51.2603 184.675 47.6903 182.675 42.6067C182.498 42.155 182.338 41.6951 182.145 41.1692C177.62 42.1047 173.475 41.3948 169.7 38.5164C169.475 38.9953 169.283 39.388 169.104 39.7874C167.702 42.9186 165.736 45.6013 163.162 47.7922C161.871 48.8914 160.469 49.801 158.848 50.2908C156.041 51.1387 153.632 50.2637 151.977 47.7643C150.625 45.7236 150.025 43.405 149.964 40.9749C149.913 38.9505 150.095 36.9206 150.178 34.8112C148.969 34.7358 147.637 34.6529 146.226 34.5646C146.141 34.8357 146.04 35.1203 145.962 35.4124C144.994 39.0415 143.165 42.1278 140.503 44.6767C139.372 45.7596 138.117 46.6597 136.608 47.0986C134.616 47.6781 132.809 47.2827 131.22 45.888C130.556 46.3737 129.965 46.8357 129.345 47.2535C127.793 48.301 126.137 49.085 124.269 49.2997C121.765 49.5877 119.716 48.748 118.207 46.6258C117.116 45.0904 116.632 43.3119 116.365 41.4559C115.842 37.8262 116.201 34.2311 116.762 30.6434C116.823 30.2528 116.861 29.8581 116.929 29.3038C116.397 29.4593 115.992 29.5565 115.6 29.6964C109.172 31.9885 102.549 33.2915 95.7985 34.0137C88.8791 34.7542 81.942 34.8995 75.0023 34.6692C69.1151 34.4743 63.2358 34.0395 57.3513 33.7494C50.4201 33.4077 43.4896 33.0157 36.5544 32.8221C31.9766 32.6944 27.3818 32.7012 22.8106 32.9586C14.8759 33.405 6.99034 34.3622 -0.742585 36.3771C-0.82577 36.3989 -0.91354 36.4029 -0.999345 36.4152V35.3282L-1 35.3268ZM118.579 27.2345C118.983 27.1217 119.232 27.085 119.454 26.9838C120.493 26.5123 121.537 26.0504 122.555 25.5368C126.98 23.3058 131.074 20.5741 134.527 16.8934C136.365 14.9342 137.942 12.7759 139.034 10.2705C139.741 8.64682 140.231 6.96136 140.145 5.15429C140 2.12372 138.009 0.579566 135.162 1.25416C133.05 1.75484 131.342 2.9865 129.778 4.46272C127.99 6.15022 126.527 8.12169 125.25 10.2419C122.406 14.9614 120.421 20.0646 118.992 25.4131C118.845 25.9641 118.738 26.5266 118.579 27.2338L118.579 27.2345ZM131.336 44.2372C134.466 41.0218 136.822 37.5123 137.794 33.1455C138.161 31.4919 138.166 29.8235 137.455 28.2372C136.578 26.2766 134.747 25.7474 133.018 26.9444C132.047 27.6163 131.372 28.5619 130.888 29.636C129.229 33.3228 128.814 37.1584 129.784 41.1149C130.049 42.1971 130.438 43.2521 131.336 44.2372ZM182.941 39.7616C186.273 38.5687 188.968 36.7324 190.849 33.7324C191.646 32.4607 192.107 31.0599 192.255 29.5538C192.461 27.458 191.45 25.3819 189.888 24.6604C188.383 23.9648 186.481 24.4926 185.106 26.1597C184.438 26.9688 183.881 27.9233 183.469 28.9009C182.267 31.7535 182.156 34.7616 182.547 37.8065C182.626 38.4199 182.789 39.0211 182.941 39.7616ZM168.939 36.2168C169.05 36.2005 169.16 36.1842 169.271 36.1679C169.436 35.3764 169.658 34.5925 169.756 33.7922C169.985 31.9016 170.109 29.9994 169.448 28.1645C169.192 27.4539 168.89 26.5999 167.997 26.6475C167.109 26.6944 166.852 27.5551 166.695 28.3024C166.049 31.3846 167.105 33.9328 168.939 36.2175V36.2168ZM152.149 32.9043C154.019 32.2596 155.512 31.1903 156.283 29.2705C156.634 28.3941 156.582 27.4586 156.146 27.2691C155.393 26.9417 154.923 27.5273 154.488 28.0035C153.241 29.369 152.555 31.0442 152.149 32.9036V32.9043ZM145.349 32.9097C145.187 31.7562 145.182 30.8778 144.918 30.0925C144.669 29.352 144.204 28.6645 143.728 28.0402C143.388 27.5952 142.749 27.405 142.319 27.782C142.023 28.0415 141.895 28.6407 141.893 29.0884C141.892 29.5116 142.096 29.9688 142.308 30.3533C142.932 31.4831 143.864 32.2514 145.349 32.909V32.9097Z" fill="#699169"/>
</g>
<defs>
<clipPath id="clip0_120_42">
<rect width="393" height="53" fill="white" transform="translate(-1)"/>
</clipPath>
</defs>
</svg>
