<?xml version="1.0" encoding="UTF-8"?>
<svg id="_레이어_2" data-name="레이어 2" xmlns="http://www.w3.org/2000/svg" viewBox="0 0 247.42 122.65">
  <defs>
    <style>
      .cls-1 {
        fill: none;
        stroke: #fff;
        stroke-linecap: round;
        stroke-linejoin: round;
      }
    </style>
  </defs>
  <g id="_레이어_1-2" data-name="레이어 1">
    <path class="cls-1" d="M.5,117.03c19.81,7.76,43.47,5.94,63.43-.43s38.66-18.2,54.61-32.34c12.64-11.2,24.08-24.29,30.47-39.92,3.24-7.94,4.96-17.06,2.88-25.52-1.95-7.92-8.08-15.22-16.03-17.55-5.71-1.67-12.15-.58-16.99,2.87-4.34,3.1-6.97,7.75-7.81,12.97-.63,3.88-.34,7.85.22,11.72-4.57-3.98-11.49-7.61-17.57-8.35-5.09-.62-10.39.77-14.52,3.81-6.83,5.04-9.65,14.14-8.3,22.33,1.46,8.91,7.39,16.68,14.86,21.75s16.37,7.67,25.29,9.01c36.13,5.44,73.8-1.64,103.43-23.74,12.23-9.13,22.75-20.48,32.44-32.19"/>
  </g>
</svg>