<svg width="248" height="125" viewBox="0 0 248 125" fill="none" xmlns="http://www.w3.org/2000/svg">
<path d="M1.30699 123.331C3.88413 123.659 6.46896 123.917 9.05812 124.101C11.6491 124.286 14.2447 124.4 16.8412 124.443C19.4378 124.487 22.0242 124.46 24.6144 124.363C27.1922 124.267 29.7681 124.101 32.3392 123.866C34.9096 123.632 37.4753 123.329 40.0328 122.959C42.6014 122.587 45.1624 122.147 47.7123 121.64C50.2622 121.133 52.8013 120.559 55.3264 119.919C57.857 119.277 60.3747 118.572 62.8759 117.8C65.3602 117.034 67.8285 116.202 70.2776 115.308C72.7372 114.409 75.1777 113.445 77.5959 112.419C80.014 111.392 82.4102 110.302 84.7813 109.15C87.1523 107.997 89.4777 106.793 91.786 105.523C94.1092 104.245 96.405 102.904 98.6701 101.505C100.931 100.109 103.161 98.6528 105.357 97.1369C107.545 95.6271 109.698 94.0585 111.815 92.4324C113.943 90.7979 116.034 89.1056 118.085 87.3563C120.128 85.6129 122.133 83.8134 124.093 81.959C126.036 80.1215 127.925 78.2232 129.734 76.2258C131.604 74.1596 133.399 72.0114 135.132 69.8058C136.914 67.5359 138.631 65.2042 140.285 62.8201C141.901 60.4921 143.458 58.1142 144.948 55.6875C146.333 53.4319 147.702 51.1432 148.907 48.7653C149.964 46.6784 150.865 44.4964 151.596 42.2479C152.316 40.0341 152.878 37.757 153.262 35.4454C153.632 33.2148 153.833 30.9536 153.862 28.6879C153.889 26.5194 153.749 24.3471 153.421 22.2097C153.105 20.1422 152.618 18.101 151.936 16.1431C151.274 14.2451 150.427 12.4183 149.394 10.732C148.384 9.08223 147.186 7.56785 145.832 6.24816C144.448 4.8998 142.89 3.76323 141.227 2.87086C139.368 1.87304 137.361 1.18779 135.334 0.735283C133.431 0.310595 131.469 0.12711 129.528 0.297681C127.877 0.442674 126.235 0.854256 124.7 1.54975C123.278 2.19473 121.942 3.07894 120.751 4.14991C119.591 5.19272 118.557 6.40347 117.658 7.71971C116.76 9.03537 115.987 10.4573 115.329 11.9333C114.698 13.3481 114.171 14.8179 113.739 16.319C113.324 17.7594 112.987 19.2252 112.742 20.7111C112.533 21.9807 112.386 23.2646 112.327 24.5531C112.278 25.602 112.271 26.6607 112.39 27.7042C112.471 28.4131 112.601 29.1328 112.921 29.7601C113.134 29.5364 113.347 29.3127 113.56 29.0887C110.809 26.0212 107.468 23.5975 103.841 21.9627C100.192 20.3175 96.2488 19.4627 92.2961 19.5182C88.0578 19.5779 83.6671 20.7757 80.1935 23.5425C77.066 26.0335 75.0205 29.8072 73.8633 33.7978C72.6496 37.9837 72.3267 42.4935 72.9707 46.8247C73.3088 49.097 73.9078 51.3268 74.793 53.4133C75.6486 55.4295 76.7513 57.3279 78.0207 59.0586C80.4866 62.4208 83.594 65.1076 86.9563 67.3147C90.4024 69.5771 94.1002 71.3413 97.8273 72.9667C99.7459 73.8036 101.673 74.628 103.612 75.4066C105.739 76.2607 107.908 76.9924 110.101 77.6176C114.423 78.8493 118.84 79.6557 123.279 80.1759C127.774 80.7026 132.296 80.9374 136.816 81.0234C141.235 81.1076 145.657 80.9222 150.061 80.5003C154.605 80.0652 159.13 79.3815 163.617 78.4738C168.144 77.558 172.634 76.4145 177.067 75.0483C181.392 73.7152 185.664 72.1677 189.855 70.39C194.053 68.6097 198.17 66.5969 202.16 64.3068C206.095 62.0481 209.91 59.5381 213.582 56.7955C217.199 54.0947 220.678 51.1736 224.024 48.0801C227.382 44.9741 230.606 41.6955 233.722 38.2986C236.914 34.819 239.99 31.2127 242.986 27.529C244.464 25.7113 245.922 23.8749 247.365 22.0244C247.739 21.5461 247.047 20.9349 246.673 21.4137C243.733 25.1821 240.731 28.8936 237.629 32.5029C234.625 35.9983 231.526 39.3984 228.302 42.6501C225.114 45.8658 221.804 48.938 218.359 51.8166C214.896 54.7099 211.297 57.406 207.568 59.8662C203.74 62.3907 199.775 64.6602 195.701 66.6632C191.698 68.631 187.6 70.3615 183.44 71.8839C179.172 73.4463 174.835 74.7917 170.455 75.9147C166.033 77.0482 161.565 77.9629 157.069 78.6469C152.642 79.3204 148.186 79.7706 143.722 79.9647C139.334 80.1553 134.938 80.0726 130.555 79.8221C126.117 79.5681 121.686 79.1054 117.305 78.2954C112.958 77.4921 108.659 76.3465 104.507 74.7239C102.546 73.9582 100.606 73.1194 98.6707 72.282C96.8062 71.4754 94.9521 70.6374 93.1284 69.7251C89.5929 67.9565 86.1496 65.9009 83.1111 63.2259C80.0988 60.574 77.498 57.2794 75.7947 53.4537C74.0267 49.4836 73.3184 44.9829 73.5905 40.576C73.8396 36.5435 74.8599 32.4457 76.8161 29.0009C77.8351 27.2063 79.1077 25.6239 80.6654 24.372C82.3403 23.0257 84.2513 22.077 86.2394 21.4474C90.1093 20.222 94.2648 20.2341 98.1883 21.097C101.944 21.9233 105.555 23.5781 108.72 25.9376C110.26 27.0847 111.695 28.3958 113.001 29.8514C113.153 30.022 113.442 29.9733 113.584 29.8193C113.755 29.6348 113.751 29.3987 113.639 29.18C113.608 29.1204 113.701 29.3189 113.651 29.202C113.638 29.1728 113.625 29.1441 113.613 29.1147C113.587 29.0518 113.563 28.9879 113.541 28.9237C113.491 28.7775 113.45 28.628 113.415 28.4771C113.41 28.4581 113.399 28.3604 113.387 28.3524C113.399 28.3601 113.415 28.495 113.399 28.4067C113.394 28.3817 113.389 28.3568 113.384 28.3314C113.366 28.2403 113.35 28.1484 113.336 28.0565C113.304 27.8558 113.279 27.6536 113.259 27.4509C113.211 26.9763 113.189 26.4987 113.182 26.0211C113.179 25.7545 113.18 25.4877 113.186 25.2208C113.188 25.1562 113.189 25.0915 113.191 25.0272C113.194 24.917 113.191 25.0339 113.192 25.0181C113.193 24.9776 113.195 24.9368 113.196 24.8963C113.202 24.7514 113.209 24.6068 113.217 24.4623C113.288 23.1707 113.444 21.8849 113.663 20.6136C113.786 19.9015 113.929 19.1933 114.092 18.4908C114.176 18.1301 114.264 17.7706 114.359 17.413C114.381 17.3287 114.404 17.2449 114.426 17.1611C114.438 17.1157 114.451 17.0706 114.463 17.0253C114.437 17.1189 114.474 16.9835 114.484 16.9507C114.535 16.7686 114.587 16.5868 114.641 16.4059C115.084 14.9188 115.62 13.4639 116.26 12.0651C116.423 11.7096 116.593 11.3576 116.77 11.0099C116.858 10.8358 116.948 10.6628 117.04 10.4904C117.087 10.4042 117.133 10.3183 117.18 10.2332C117.191 10.2134 117.252 10.1023 117.231 10.1401C117.213 10.1736 117.271 10.0693 117.284 10.0475C117.672 9.36215 118.09 8.69673 118.54 8.05878C118.986 7.42562 119.464 6.81853 119.974 6.24575C120.265 5.91942 120.401 5.77575 120.71 5.47078C120.983 5.20194 121.264 4.94309 121.553 4.69464C122.136 4.1934 122.751 3.73632 123.393 3.33199C123.474 3.28075 123.556 3.23035 123.638 3.18118C123.684 3.1531 123.627 3.18759 123.621 3.19112C123.644 3.17692 123.668 3.16313 123.692 3.14935C123.739 3.12178 123.787 3.09421 123.834 3.06705C124.002 2.97133 124.171 2.87933 124.342 2.79031C124.689 2.61095 125.041 2.446 125.399 2.29635C125.757 2.14669 126.136 2.0065 126.511 1.88558C126.703 1.82402 126.895 1.7666 127.089 1.71322C127.131 1.70177 127.172 1.69032 127.214 1.67928C127.303 1.65588 127.243 1.67184 127.224 1.67656C127.245 1.67104 127.266 1.66594 127.288 1.66026C127.394 1.63401 127.5 1.60817 127.607 1.58373C128.436 1.39533 129.278 1.28159 130.123 1.23486C132.026 1.12952 133.937 1.37621 135.824 1.85272C137.769 2.34388 139.667 3.05955 141.433 4.08439C142.984 4.98425 144.442 6.13539 145.745 7.48802C146.993 8.78378 148.124 10.3236 149.065 11.9729C150.005 13.6191 150.764 15.3949 151.365 17.2818C151.994 19.2566 152.404 21.1848 152.667 23.2529C152.934 25.3552 153.028 27.5337 152.955 29.6259C152.878 31.8684 152.62 34.105 152.203 36.3031C151.778 38.5464 151.187 40.7421 150.436 42.8802C149.657 45.0971 148.712 47.2438 147.614 49.2921C146.352 51.6446 144.98 53.9312 143.571 56.1805C142.066 58.5848 140.496 60.9408 138.867 63.2464C137.211 65.5921 135.493 67.8863 133.709 70.1169C131.925 72.3475 130.2 74.3701 128.338 76.3837C126.477 78.3973 124.671 80.1496 122.757 81.9348C120.802 83.7576 118.806 85.5266 116.77 87.2397C114.727 88.9591 112.646 90.6225 110.528 92.2284C108.422 93.8265 106.279 95.3678 104.104 96.851C101.929 98.3342 99.7222 99.7589 97.4851 101.125C95.2534 102.488 92.9908 103.79 90.7019 105.032C88.4082 106.278 86.0874 107.463 83.743 108.588C81.3877 109.717 79.0083 110.786 76.6076 111.792C74.2171 112.793 71.8056 113.733 69.3754 114.61C66.9452 115.486 64.4961 116.301 62.0313 117.052C59.5721 117.801 57.0968 118.487 54.6078 119.107C52.1189 119.726 49.6064 120.284 47.0885 120.775C44.5594 121.269 42.0199 121.696 39.4731 122.056C36.9371 122.414 34.3937 122.707 31.8452 122.932C29.285 123.158 26.7201 123.316 24.1533 123.405C21.597 123.494 19.0393 123.515 16.4826 123.467C13.9285 123.418 11.3759 123.299 8.82773 123.111C6.36417 122.928 3.90483 122.68 1.45292 122.367C0.885173 122.295 0.736317 123.259 1.30548 123.331L1.30699 123.331Z" fill="white"/>
</svg>
